<?xml version="1.0" standalone="no"?>
<!DOCTYPE svg PUBLIC "-//W3C//DTD SVG 20010904//EN"
 "http://www.w3.org/TR/2001/REC-SVG-20010904/DTD/svg10.dtd">
<svg version="1.0" xmlns="http://www.w3.org/2000/svg"
 width="433.000000pt" height="577.000000pt" viewBox="0 0 433.000000 577.000000"
 preserveAspectRatio="xMidYMid meet">

<g transform="translate(0.000000,577.000000) scale(0.100000,-0.100000)"
fill="#000000" stroke="none">
<path d="M2125 4535 l0 -365 62 0 63 0 2 183 c3 172 4 182 22 182 16 0 35 -36
97 -185 l78 -185 67 -8 c37 -4 68 -6 68 -5 1 2 -1 75 -5 163 -11 259 -10 514
2 537 6 11 9 21 7 23 -2 2 -32 5 -68 7 l-65 3 -5 -185 c-4 -154 -7 -185 -20
-185 -10 0 -41 63 -92 184 -42 101 -78 185 -80 186 -2 1 -32 5 -68 9 l-65 6 0
-365z"/>
<path d="M1850 4713 c0 -174 -5 -210 -30 -201 -6 2 -46 84 -88 183 l-77 180
-45 -3 c-100 -6 -97 -3 -89 -85 12 -132 11 -605 -2 -628 -11 -21 -10 -22 27
-16 22 4 51 7 67 7 l27 0 0 179 c0 149 3 181 15 191 10 8 19 9 24 4 5 -5 44
-89 87 -188 l78 -178 35 6 c20 3 50 6 66 6 l30 0 0 360 0 360 -62 0 -63 0 0
-177z"/>
<path d="M2750 4856 c0 -4 6 -17 14 -29 8 -12 49 -111 91 -219 l76 -197 -2
-148 -2 -148 44 -7 c24 -3 57 -7 72 -7 24 -1 26 1 17 18 -5 11 -10 72 -10 136
l0 117 77 187 c42 102 85 196 95 207 l19 21 -63 12 c-35 7 -71 14 -81 17 -15
5 -17 1 -11 -19 8 -36 -72 -219 -95 -215 -23 5 -102 204 -95 241 5 23 2 27
-18 27 -13 0 -47 3 -75 6 -29 4 -53 4 -53 0z"/>
<path d="M1250 4824 c-252 -42 -312 -56 -303 -73 4 -9 8 -170 8 -359 l0 -344
30 5 c48 6 358 57 383 63 20 4 22 10 22 70 0 52 -3 64 -12 56 -11 -9 -78 -22
-247 -47 -32 -5 -46 -3 -52 6 -14 22 -11 155 4 166 18 15 135 35 157 28 19 -6
20 -1 20 65 0 65 -2 71 -17 65 -34 -13 -140 -28 -156 -22 -14 5 -17 20 -17 79
0 40 4 78 8 85 9 15 248 56 284 49 26 -5 26 -5 30 59 l3 65 -30 -1 c-16 -1
-68 -7 -115 -15z"/>
<path d="M3355 4710 c-4 -28 -5 -53 -2 -56 2 -3 26 15 53 40 27 24 47 46 44
49 -3 3 -24 8 -46 12 l-42 6 -7 -51z"/>
<path d="M725 4718 c-51 -13 -157 -43 -263 -74 -75 -23 -81 -27 -72 -45 7 -12
10 -137 8 -359 -2 -187 -1 -340 2 -340 3 0 33 9 68 20 35 11 116 34 180 50 64
17 125 33 135 36 35 11 47 57 47 178 0 87 -4 124 -17 151 -16 33 -16 38 0 88
21 65 24 276 5 295 -14 14 -37 14 -93 0z m-31 -150 c19 -26 21 -106 5 -142 -9
-19 -26 -28 -90 -44 -98 -24 -101 -21 -97 85 l3 78 75 22 c94 27 86 27 104 1z
m6 -307 c17 -33 12 -126 -7 -149 -20 -21 -144 -58 -168 -48 -13 5 -15 21 -13
88 l3 83 65 22 c82 27 107 28 120 4z"/>
<path d="M3528 4707 c-16 -13 -18 -34 -18 -177 0 -207 5 -217 112 -244 40 -11
101 -27 136 -38 l62 -19 0 -84 c0 -48 -5 -87 -11 -90 -12 -8 -245 52 -276 71
-23 14 -23 14 -23 -29 0 -32 7 -50 28 -74 23 -26 45 -36 148 -62 66 -17 139
-37 163 -46 39 -13 45 -13 67 3 23 17 23 20 24 173 l0 155 -30 41 c-28 38 -36
42 -147 73 -65 18 -124 38 -130 43 -9 6 -13 37 -13 89 0 91 7 98 73 79 164
-48 210 -65 227 -84 l20 -21 0 43 c0 30 -8 54 -29 84 -28 41 -32 43 -163 80
-166 47 -198 51 -220 34z"/>
<path d="M1396 4067 c-61 -61 -86 -121 -86 -207 0 -66 23 -104 76 -126 66 -28
133 -14 181 38 33 35 73 128 73 170 0 52 -39 82 -95 74 -48 -8 -90 -36 -90
-62 0 -27 23 -23 38 6 9 18 21 25 42 25 28 0 30 -3 33 -43 5 -68 -57 -170
-117 -193 -98 -38 -117 124 -30 261 50 81 117 100 153 45 17 -25 46 -34 46
-14 0 7 -16 27 -36 45 -30 29 -42 34 -85 34 -47 0 -53 -3 -103 -53z"/>
<path d="M2868 4060 c-27 -20 -92 -144 -104 -195 -7 -33 -50 -95 -65 -95 -16
0 -10 43 16 105 18 45 21 61 12 67 -17 11 -45 10 -52 -2 -4 -6 -15 -6 -32 1
-54 20 -88 -6 -118 -92 -20 -57 -75 -133 -87 -121 -7 7 2 40 26 98 19 49 31
93 27 97 -19 19 -56 0 -89 -43 -50 -66 -68 -65 -42 2 28 72 28 73 -1 76 -23 3
-28 -3 -53 -67 -28 -72 -60 -121 -78 -121 -15 0 -3 53 27 117 l24 53 -26 6
c-20 5 -30 2 -43 -16 -20 -26 -44 -25 -122 6 -47 18 -48 18 -75 -2 -15 -12
-35 -42 -45 -69 -16 -46 -52 -95 -70 -95 -15 0 -8 40 17 102 19 48 22 64 13
70 -26 16 -42 2 -67 -59 -26 -63 -62 -113 -81 -113 -13 0 -13 4 7 68 l17 54
-37 30 c-29 23 -35 33 -27 43 17 20 -27 42 -45 23 -12 -11 -19 -63 -16 -105 2
-24 21 -13 21 11 0 32 12 39 36 22 18 -14 18 -16 -4 -81 -24 -72 -21 -84 21
-106 15 -9 24 -6 47 16 l28 26 26 -26 c33 -33 53 -24 87 39 13 26 29 46 36 46
19 0 27 -21 12 -31 -11 -7 -12 -12 -1 -29 17 -27 17 -27 -23 -40 -19 -6 -37
-19 -40 -29 -8 -26 -66 -31 -345 -31 -139 0 -241 -4 -250 -10 -10 -7 89 -10
305 -10 176 0 336 -3 355 -8 20 -5 50 -4 70 1 19 5 233 14 475 19 273 6 444
14 450 20 7 7 -76 9 -257 5 -148 -3 -268 -1 -268 3 0 5 9 25 21 44 21 37 39
47 39 23 0 -8 12 -19 27 -26 24 -11 29 -10 44 8 10 12 19 27 22 34 3 8 11 6
28 -9 41 -36 49 -37 75 -13 l24 22 21 -26 c11 -15 27 -27 35 -27 17 0 91 65
106 94 7 13 -4 7 -31 -17 -77 -70 -110 -27 -38 50 66 72 106 131 113 169 11
60 -29 83 -78 44z m42 -45 c0 -3 -13 -32 -30 -65 -30 -59 -50 -83 -50 -58 0
16 37 97 52 115 10 13 28 18 28 8z m-815 -117 c15 -31 15 -33 -9 -56 -47 -48
-79 7 -35 62 11 14 22 26 24 26 2 0 11 -14 20 -32z m558 -22 c-26 -51 -73
-116 -84 -116 -24 0 35 153 63 163 28 10 38 -13 21 -47z m-467 -8 c-4 -13 -9
-46 -13 -74 -5 -46 -3 -53 15 -63 25 -13 49 -5 63 20 11 22 29 25 29 5 0 -7 7
-19 15 -26 21 -18 40 0 76 72 16 32 34 58 39 58 14 0 13 -9 -10 -74 -19 -56
-19 -57 0 -76 11 -11 20 -22 20 -25 0 -3 -62 -5 -138 -5 -137 0 -139 0 -138
23 1 17 -11 28 -54 50 -30 15 -56 31 -58 35 -1 5 14 13 35 18 27 6 45 19 62
47 28 43 68 53 57 15z m-109 -153 c27 -24 28 -25 9 -40 -23 -17 -45 -19 -80
-5 -30 11 -33 26 -9 52 22 25 47 23 80 -7z"/>
<path d="M1937 4053 c-11 -10 -8 -63 3 -63 15 0 50 38 50 55 0 15 -40 21 -53
8z"/>
<path d="M2272 4048 c-15 -15 -15 -45 0 -54 11 -7 58 38 58 57 0 13 -44 11
-58 -3z"/>
<path d="M990 3470 c0 -113 1 -120 20 -120 18 0 20 7 20 80 0 44 4 80 9 80 5
0 17 -35 28 -77 15 -63 23 -78 38 -78 15 0 23 15 38 78 11 42 22 77 26 77 3 0
5 -36 5 -80 -2 -78 -2 -80 22 -80 l24 0 0 120 0 120 -35 0 c-33 0 -35 -2 -50
-52 -8 -28 -15 -57 -15 -64 0 -18 -19 -28 -24 -12 -3 7 -12 39 -21 71 -15 55
-17 57 -50 57 l-35 0 0 -120z"/>
<path d="M1300 3563 c-19 -25 -21 -38 -18 -106 3 -68 6 -82 27 -98 30 -25 72
-24 105 2 24 19 26 26 26 105 0 101 -15 124 -79 124 -31 0 -44 -6 -61 -27z
m88 -89 c2 -54 -1 -74 -13 -84 -27 -23 -45 5 -45 70 0 74 7 92 34 88 19 -3 21
-10 24 -74z"/>
<path d="M1480 3571 c0 -14 8 -21 28 -23 l27 -3 3 -97 c3 -96 3 -98 27 -98 24
0 24 2 27 98 l3 97 28 3 c19 2 27 9 27 23 0 17 -8 19 -85 19 -77 0 -85 -2 -85
-19z"/>
<path d="M1710 3570 c-17 -17 -20 -33 -20 -99 0 -100 17 -126 80 -126 63 0 80
26 80 126 0 95 -16 119 -80 119 -27 0 -47 -7 -60 -20z m88 -96 c2 -54 -1 -74
-13 -84 -29 -24 -45 5 -45 80 0 73 4 82 35 78 18 -3 20 -11 23 -74z"/>
<path d="M1910 3470 l0 -120 25 0 c23 0 25 3 25 50 0 28 5 50 11 50 5 0 19
-22 31 -50 18 -44 24 -50 50 -50 l28 0 -25 51 -26 50 21 17 c14 11 22 30 22
51 2 50 -29 71 -103 71 l-59 0 0 -120z m108 48 c2 -19 -2 -28 -17 -33 -29 -9
-41 1 -41 36 0 27 3 30 28 27 21 -2 28 -9 30 -30z"/>
<path d="M2160 3574 c0 -9 9 -50 19 -92 10 -43 22 -89 25 -104 5 -21 12 -28
30 -28 21 0 25 7 37 65 8 36 19 66 24 66 6 0 17 -29 25 -66 13 -61 17 -66 39
-63 21 3 26 11 37 58 7 30 19 83 27 118 l15 62 -23 0 c-21 0 -24 -7 -36 -70
-7 -39 -16 -73 -20 -76 -4 -2 -15 30 -25 71 -15 66 -21 75 -38 73 -16 -2 -23
-17 -36 -66 -8 -35 -20 -63 -25 -63 -5 0 -16 29 -24 65 -11 53 -18 66 -32 66
-11 0 -19 -7 -19 -16z"/>
<path d="M2497 3572 c-24 -26 -24 -183 -1 -206 40 -41 115 -26 133 26 18 50
13 129 -9 166 -17 28 -25 32 -63 32 -30 0 -49 -6 -60 -18z m85 -57 c10 -38 2
-117 -14 -126 -29 -18 -48 14 -48 84 0 74 45 105 62 42z"/>
<path d="M2700 3470 c0 -120 0 -120 24 -120 22 0 23 3 20 45 -1 25 1 47 6 50
5 3 21 -17 35 -45 20 -40 30 -50 50 -50 30 0 30 -1 3 55 l-22 45 22 23 c22 23
28 62 14 83 -14 22 -51 34 -101 34 l-51 0 0 -120z m108 53 c4 -24 -30 -48 -54
-39 -14 6 -19 47 -7 60 16 15 58 1 61 -21z"/>
<path d="M2920 3470 l0 -120 25 0 c22 0 24 4 27 58 l3 57 37 -57 c32 -50 42
-58 68 -58 l31 0 -41 59 c-22 33 -40 64 -40 68 0 5 16 32 35 61 l36 52 -30 0
c-25 0 -34 -8 -61 -56 -18 -30 -35 -53 -38 -49 -3 3 -5 28 -3 55 2 48 1 50
-23 50 l-26 0 0 -120z"/>
<path d="M3167 3572 c-40 -44 -13 -100 63 -132 33 -14 38 -31 14 -51 -12 -10
-19 -10 -32 -1 -31 22 -42 24 -57 12 -14 -11 -14 -15 1 -31 37 -41 124 -32
146 16 19 42 0 76 -57 105 -28 14 -50 32 -50 40 0 19 41 25 61 10 11 -10 17
-10 29 0 14 12 14 15 -1 31 -23 26 -95 26 -117 1z"/>
<path d="M757 3500 c-17 -29 -17 -31 0 -60 16 -27 23 -31 56 -28 29 2 42 9 55
31 16 25 16 29 0 55 -13 21 -26 28 -55 30 -33 3 -40 -1 -56 -28z"/>
<path d="M3434 3497 c-15 -31 -15 -36 0 -65 14 -27 22 -32 54 -32 33 0 40 4
54 33 14 29 14 35 0 65 -14 28 -21 32 -54 32 -34 0 -40 -4 -54 -33z"/>
</g>
</svg>
